<?xml version="1.0" encoding="UTF-8"?>
<svg id="Ebene_1" xmlns="http://www.w3.org/2000/svg" version="1.1" viewBox="0 0 359.8 85.7">
  <!-- Generator: Adobe Illustrator 30.6.0, SVG Export Plug-In . SVG Version: 2.1.4 Build 109)  -->
  <defs>
    <style>
      .st0 {
        fill: #132639;
      }
    </style>
  </defs>
  <path class="st0" d="M33.3,50.2v10.7h-5.1v-18.5h4.9v3.3h.2c.4-1.1,1.1-1.9,2.1-2.6,1-.6,2.1-.9,3.5-.9s2.4.3,3.4.8c1,.6,1.7,1.4,2.2,2.4s.8,2.3.8,3.7v11.8h-5.1v-10.9c0-1.1-.3-2-.9-2.7s-1.4-1-2.4-1-1.3,0-1.8.4c-.5.3-.9.7-1.2,1.3s-.4,1.2-.5,2v.2Z"/>
  <path class="st0" d="M57.6,61.3c-1.9,0-3.5-.4-4.9-1.2s-2.4-1.9-3.2-3.3c-.7-1.4-1.1-3.1-1.1-5.1s.4-3.6,1.1-5c.7-1.4,1.8-2.6,3.1-3.4,1.3-.8,2.9-1.2,4.8-1.2s2.4.2,3.4.6c1.1.4,2,1,2.8,1.8s1.4,1.8,1.9,2.9c.4,1.2.7,2.6.7,4.1v1.4h-15.7v-3.2h10.8c0-.7-.2-1.4-.5-2s-.8-1-1.3-1.3c-.6-.3-1.2-.5-2-.5s-1.5.2-2.1.5c-.6.4-1.1.8-1.4,1.4s-.5,1.3-.5,2v3c0,.9.2,1.7.5,2.4s.8,1.2,1.5,1.5,1.4.5,2.2.5,1.1,0,1.6-.2.9-.4,1.2-.7.6-.7.8-1.2l4.8.3c-.2,1.1-.7,2.1-1.5,3-.7.8-1.7,1.5-2.9,2s-2.5.7-4.1.7v.2Z"/>
  <path class="st0" d="M77.7,61.3c-1.9,0-3.5-.4-4.9-1.2s-2.4-1.9-3.1-3.4c-.7-1.4-1.1-3.1-1.1-5s.4-3.6,1.1-5,1.8-2.6,3.1-3.4c1.4-.8,3-1.2,4.9-1.2s3,.3,4.2.9c1.2.6,2.2,1.4,2.9,2.5.7,1.1,1.1,2.3,1.2,3.7h-4.9c0-.9-.5-1.7-1.1-2.2-.6-.6-1.3-.9-2.3-.9s-1.5.2-2.1.6c-.6.4-1.1,1.1-1.4,1.9s-.5,1.8-.5,3,.2,2.2.5,3,.8,1.5,1.4,1.9,1.3.7,2.1.7,1.1,0,1.6-.4c.5-.2.9-.6,1.2-1.1s.5-1,.6-1.7h4.9c0,1.4-.5,2.7-1.2,3.7-.7,1.1-1.6,1.9-2.8,2.5-1.2.6-2.6.9-4.3.9v.2Z"/>
  <path class="st0" d="M89.3,60.9v-24.7h5.1v24.7h-5.1ZM93.9,55.6v-6.2h.8l5.9-7h5.9l-8,9.3h-1.2s-3.4,3.9-3.4,3.9ZM100.8,60.9l-5.5-8.1,3.4-3.6,8.1,11.7s-6,0-6,0Z"/>
  <path class="st0" d="M113.8,61.3c-1.2,0-2.2-.2-3.2-.6-.9-.4-1.7-1-2.2-1.8s-.8-1.8-.8-3.1.2-1.9.6-2.6.9-1.3,1.5-1.7c.7-.4,1.4-.7,2.2-1,.8-.2,1.7-.4,2.6-.5,1.1,0,1.9-.2,2.6-.3s1.1-.3,1.4-.5.4-.5.4-.9h0c0-.8-.2-1.4-.7-1.8-.5-.4-1.2-.6-2-.6s-1.7.2-2.2.6c-.5.4-.9.9-1.1,1.5l-4.8-.4c.2-1.1.7-2.1,1.4-2.9.7-.8,1.6-1.5,2.7-1.9s2.4-.7,3.9-.7,2,0,3,.4c.9.2,1.8.6,2.5,1.1s1.3,1.2,1.7,2c.4.8.6,1.7.6,2.8v12.5h-4.9v-2.6h0c-.3.6-.7,1.1-1.2,1.5s-1.1.8-1.8,1c-.7.2-1.5.4-2.4.4h.3ZM115.3,57.7c.8,0,1.4-.2,2-.5s1-.7,1.4-1.2c.3-.5.5-1.1.5-1.8v-2c-.2,0-.4.2-.7.3-.3,0-.6.2-.9.2s-.7,0-1,.2-.7,0-.9,0c-.6,0-1.1.2-1.6.4s-.8.5-1.1.8c-.2.3-.4.7-.4,1.2s.3,1.2.8,1.6,1.2.5,2,.5v.2Z"/>
  <path class="st0" d="M128.3,60.9v-18.5h5v3.2h.2c.3-1.2.9-2,1.7-2.6s1.7-.9,2.8-.9.5,0,.8,0,.6,0,.8,0v4.6c-.2,0-.6,0-1-.2h-1.2c-.8,0-1.4.2-2,.5s-1.1.8-1.4,1.4c-.3.6-.5,1.2-.5,2v10.5h-5.2Z"/>
  <path class="st0" d="M152.7,42.4v3.9h-11.4v-3.9h11.4ZM143.8,60.9v-19.9c0-1.3.3-2.5.8-3.3.5-.9,1.2-1.5,2.2-2,.9-.4,2-.7,3.1-.7s1.5,0,2.2.2c.7,0,1.1.2,1.5.3l-.9,3.9c-.2,0-.4,0-.7-.2h-.9c-.8,0-1.3.2-1.6.5s-.4.8-.4,1.5v19.8h-5.3Z"/>
  <path class="st0" d="M155.3,60.9v-18.5h5v3.2h.2c.3-1.2.9-2,1.7-2.6s1.7-.9,2.8-.9.5,0,.8,0,.6,0,.8,0v4.6c-.2,0-.6,0-1-.2h-1.2c-.8,0-1.4.2-2,.5s-1.1.8-1.4,1.4c-.3.6-.5,1.2-.5,2v10.5h-5.2Z"/>
  <path class="st0" d="M177.4,61.3c-1.9,0-3.5-.4-4.9-1.2s-2.4-1.9-3.2-3.3c-.7-1.4-1.1-3.1-1.1-5.1s.4-3.6,1.1-5c.7-1.4,1.8-2.6,3.1-3.4,1.3-.8,2.9-1.2,4.8-1.2s2.4.2,3.4.6,2,1,2.8,1.8,1.4,1.8,1.9,2.9c.4,1.2.7,2.6.7,4.1v1.4h-15.7v-3.2h10.8c0-.7-.2-1.4-.5-2s-.8-1-1.3-1.3c-.6-.3-1.2-.5-2-.5s-1.5.2-2.1.5c-.6.4-1.1.8-1.4,1.4s-.5,1.3-.5,2v3c0,.9.2,1.7.5,2.4s.8,1.2,1.5,1.5,1.4.5,2.2.5,1.1,0,1.6-.2.9-.4,1.2-.7.6-.7.8-1.2l4.8.3c-.2,1.1-.7,2.1-1.5,3-.7.8-1.7,1.5-2.9,2s-2.5.7-4.1.7v.2Z"/>
  <path class="st0" d="M201,53v-10.6h5.1v18.5h-4.9v-3.4h-.2c-.4,1.1-1.1,2-2.1,2.6-1,.7-2.2,1-3.5,1s-2.3-.3-3.3-.8c-.9-.6-1.7-1.4-2.2-2.4s-.8-2.3-.8-3.7v-11.8h5.1v10.9c0,1.1.3,2,.9,2.6.6.6,1.4,1,2.3,1s1.2,0,1.7-.4c.5-.3,1-.7,1.3-1.3s.5-1.3.5-2.1h0Z"/>
  <path class="st0" d="M215.4,50.2v10.7h-5.1v-18.5h4.9v3.3h.2c.4-1.1,1.1-1.9,2.1-2.6s2.1-.9,3.5-.9,2.4.3,3.4.8,1.7,1.4,2.2,2.4.8,2.3.8,3.7v11.8h-5.1v-10.9c0-1.1-.3-2-.9-2.7-.6-.6-1.4-1-2.4-1s-1.3,0-1.8.4c-.5.3-.9.7-1.2,1.3s-.4,1.2-.5,2v.2Z"/>
  <path class="st0" d="M238.2,61.2c-1.4,0-2.7-.4-3.8-1.1-1.1-.7-2-1.8-2.7-3.2s-1-3.2-1-5.2.3-3.9,1-5.3c.7-1.4,1.6-2.5,2.7-3.2s2.4-1.1,3.7-1.1,1.9.2,2.6.5,1.3.8,1.7,1.3.8,1,1,1.5h.2v-9.3h5.1v24.7h-5.1v-3h-.2c-.2.5-.6,1-1,1.5s-1,.9-1.7,1.2-1.5.5-2.5.5v.2ZM239.8,57.1c.8,0,1.5-.2,2.1-.7s1-1.1,1.3-1.9c.3-.8.5-1.8.5-2.9s-.2-2.1-.5-2.9c-.3-.8-.7-1.4-1.3-1.9-.6-.4-1.3-.7-2.1-.7s-1.6.2-2.1.7c-.6.5-1,1.1-1.3,1.9-.3.8-.4,1.8-.4,2.8s.2,2,.5,2.9.7,1.5,1.3,1.9c.6.5,1.3.7,2.1.7h-.1Z"/>
  <path class="st0" d="M261.3,61.3c-1.9,0-3.5-.4-4.9-1.2s-2.4-1.9-3.2-3.3-1.1-3.1-1.1-5.1.4-3.6,1.1-5c.7-1.4,1.8-2.6,3.1-3.4,1.3-.8,2.9-1.2,4.8-1.2s2.4.2,3.4.6c1.1.4,2,1,2.8,1.8s1.4,1.8,1.9,2.9c.4,1.2.7,2.6.7,4.1v1.4h-15.7v-3.2h10.8c0-.7-.2-1.4-.5-2s-.8-1-1.3-1.3c-.6-.3-1.2-.5-2-.5s-1.5.2-2.1.5c-.6.4-1.1.8-1.4,1.4s-.5,1.3-.5,2v3c0,.9.2,1.7.5,2.4s.8,1.2,1.5,1.5,1.4.5,2.2.5,1.1,0,1.6-.2.9-.4,1.2-.7c.3-.3.6-.7.8-1.2l4.8.3c-.2,1.1-.7,2.1-1.5,3s-1.7,1.5-2.9,2c-1.2.5-2.5.7-4.1.7v.2Z"/>
</svg>